solid OpenSCAD_Model
  facet normal 0.707107 0.707107 0
    outer loop
      vertex 52.2 22.1 5
      vertex 47.2 27.1 0
      vertex 47.2 27.1 5
    endloop
  endfacet
  facet normal 0.707107 0.707107 0
    outer loop
      vertex 47.2 27.1 0
      vertex 52.2 22.1 5
      vertex 52.2 22.1 0
    endloop
  endfacet
  facet normal 0 0 1
    outer loop
      vertex 0 5 5
      vertex 3 7.55 5
      vertex 0 7.55 5
    endloop
  endfacet
  facet normal 0 0 1
    outer loop
      vertex 52.2 22.1 5
      vertex 49.2 24.1 5
      vertex 52.2 5 5
    endloop
  endfacet
  facet normal 0 0 1
    outer loop
      vertex 47.2 27.1 5
      vertex 49.2 24.1 5
      vertex 52.2 22.1 5
    endloop
  endfacet
  facet normal -0 0 1
    outer loop
      vertex 5 27.1 5
      vertex 49.2 24.1 5
      vertex 47.2 27.1 5
    endloop
  endfacet
  facet normal 0 0 1
    outer loop
      vertex 5 27.1 5
      vertex 3 24.1 5
      vertex 49.2 24.1 5
    endloop
  endfacet
  facet normal 0 0 1
    outer loop
      vertex 0 22.1 5
      vertex 3 24.1 5
      vertex 5 27.1 5
    endloop
  endfacet
  facet normal -0 0 1
    outer loop
      vertex 0 22.1 5
      vertex 3 19.55 5
      vertex 3 24.1 5
    endloop
  endfacet
  facet normal 0 0 1
    outer loop
      vertex 3 19.55 5
      vertex 0 22.1 5
      vertex 0 19.55 5
    endloop
  endfacet
  facet normal 0 0 1
    outer loop
      vertex 49.2 3 5
      vertex 52.2 5 5
      vertex 49.2 24.1 5
    endloop
  endfacet
  facet normal -0 0 1
    outer loop
      vertex 49.2 3 5
      vertex 47.2 0 5
      vertex 52.2 5 5
    endloop
  endfacet
  facet normal 0 0 1
    outer loop
      vertex 49.2 3 5
      vertex 5 0 5
      vertex 47.2 0 5
    endloop
  endfacet
  facet normal -0 0 1
    outer loop
      vertex 3 3 5
      vertex 5 0 5
      vertex 49.2 3 5
    endloop
  endfacet
  facet normal 0 0 1
    outer loop
      vertex 3 3 5
      vertex 0 5 5
      vertex 5 0 5
    endloop
  endfacet
  facet normal 0 0 1
    outer loop
      vertex 3 7.55 5
      vertex 0 5 5
      vertex 3 3 5
    endloop
  endfacet
  facet normal -0.707107 -0.707107 0
    outer loop
      vertex 5 0 0
      vertex 0 5 5
      vertex 0 5 0
    endloop
  endfacet
  facet normal -0.707107 -0.707107 0
    outer loop
      vertex 0 5 5
      vertex 5 0 0
      vertex 5 0 5
    endloop
  endfacet
  facet normal 1 -0 0
    outer loop
      vertex 52.2 5 5
      vertex 52.2 22.1 0
      vertex 52.2 22.1 5
    endloop
  endfacet
  facet normal 1 0 0
    outer loop
      vertex 52.2 22.1 0
      vertex 52.2 5 5
      vertex 52.2 5 0
    endloop
  endfacet
  facet normal 0 -1 0
    outer loop
      vertex 5 0 0
      vertex 47.2 0 5
      vertex 5 0 5
    endloop
  endfacet
  facet normal 0 -1 -0
    outer loop
      vertex 47.2 0 5
      vertex 5 0 0
      vertex 47.2 0 0
    endloop
  endfacet
  facet normal -0.707107 0.707107 0
    outer loop
      vertex 0 22.1 0
      vertex 5 27.1 5
      vertex 5 27.1 0
    endloop
  endfacet
  facet normal -0.707107 0.707107 0
    outer loop
      vertex 5 27.1 5
      vertex 0 22.1 0
      vertex 0 22.1 5
    endloop
  endfacet
  facet normal 0 0 -1
    outer loop
      vertex 52.2 5 0
      vertex 47.8 13.55 0
      vertex 52.2 22.1 0
    endloop
  endfacet
  facet normal 0 0 -1
    outer loop
      vertex 52.2 5 0
      vertex 47.7803 13.2997 0
      vertex 47.8 13.55 0
    endloop
  endfacet
  facet normal 0 0 -1
    outer loop
      vertex 52.2 5 0
      vertex 47.7217 13.0556 0
      vertex 47.7803 13.2997 0
    endloop
  endfacet
  facet normal 0 0 -1
    outer loop
      vertex 52.2 5 0
      vertex 47.6256 12.8236 0
      vertex 47.7217 13.0556 0
    endloop
  endfacet
  facet normal 0 0 -1
    outer loop
      vertex 52.2 5 0
      vertex 47.4944 12.6095 0
      vertex 47.6256 12.8236 0
    endloop
  endfacet
  facet normal 0 0 -1
    outer loop
      vertex 52.2 5 0
      vertex 47.3314 12.4186 0
      vertex 47.4944 12.6095 0
    endloop
  endfacet
  facet normal 0 0 -1
    outer loop
      vertex 46.2 11.95 0
      vertex 52.2 5 0
      vertex 47.2 0 0
    endloop
  endfacet
  facet normal 0 0 -1
    outer loop
      vertex 52.2 5 0
      vertex 47.1405 12.2556 0
      vertex 47.3314 12.4186 0
    endloop
  endfacet
  facet normal 0 0 -1
    outer loop
      vertex 52.2 5 0
      vertex 46.9264 12.1244 0
      vertex 47.1405 12.2556 0
    endloop
  endfacet
  facet normal 0 0 -1
    outer loop
      vertex 52.2 5 0
      vertex 46.6944 12.0283 0
      vertex 46.9264 12.1244 0
    endloop
  endfacet
  facet normal 0 0 -1
    outer loop
      vertex 52.2 5 0
      vertex 46.4503 11.9697 0
      vertex 46.6944 12.0283 0
    endloop
  endfacet
  facet normal 0 0 -1
    outer loop
      vertex 52.2 5 0
      vertex 46.2 11.95 0
      vertex 46.4503 11.9697 0
    endloop
  endfacet
  facet normal 0 0 -1
    outer loop
      vertex 47.2 0 0
      vertex 45.9497 11.9697 0
      vertex 46.2 11.95 0
    endloop
  endfacet
  facet normal 0 0 -1
    outer loop
      vertex 47.2 0 0
      vertex 45.7056 12.0283 0
      vertex 45.9497 11.9697 0
    endloop
  endfacet
  facet normal 0 0 -1
    outer loop
      vertex 47.2 0 0
      vertex 45.4736 12.1244 0
      vertex 45.7056 12.0283 0
    endloop
  endfacet
  facet normal 0 0 -1
    outer loop
      vertex 44.6006 12.5699 0
      vertex 45.4736 12.1244 0
      vertex 47.2 0 0
    endloop
  endfacet
  facet normal 0 0 -1
    outer loop
      vertex 45.4736 12.1244 0
      vertex 44.6006 12.5699 0
      vertex 45.2595 12.2556 0
    endloop
  endfacet
  facet normal -0 -0 -1
    outer loop
      vertex 44.9279 12.4635 0
      vertex 45.2595 12.2556 0
      vertex 44.7601 12.5038 0
    endloop
  endfacet
  facet normal 0 0 -1
    outer loop
      vertex 45.0686 12.4186 0
      vertex 44.9279 12.4635 0
      vertex 45.0376 12.4549 0
    endloop
  endfacet
  facet normal 0 0 -1
    outer loop
      vertex 45.2595 12.2556 0
      vertex 44.9279 12.4635 0
      vertex 45.0686 12.4186 0
    endloop
  endfacet
  facet normal 0 0 -1
    outer loop
      vertex 45.2595 12.2556 0
      vertex 44.6006 12.5699 0
      vertex 44.7601 12.5038 0
    endloop
  endfacet
  facet normal 0 0 -1
    outer loop
      vertex 47.2 0 0
      vertex 44.4534 12.6601 0
      vertex 44.6006 12.5699 0
    endloop
  endfacet
  facet normal 0 0 -1
    outer loop
      vertex 47.2 0 0
      vertex 44.3222 12.7722 0
      vertex 44.4534 12.6601 0
    endloop
  endfacet
  facet normal 0 0 -1
    outer loop
      vertex 47.2 0 0
      vertex 44.2101 12.9034 0
      vertex 44.3222 12.7722 0
    endloop
  endfacet
  facet normal 0 0 -1
    outer loop
      vertex 47.2 0 0
      vertex 44.1199 13.0506 0
      vertex 44.2101 12.9034 0
    endloop
  endfacet
  facet normal 0 0 -1
    outer loop
      vertex 8.08011 13.0506 0
      vertex 44.1199 13.0506 0
      vertex 47.2 0 0
    endloop
  endfacet
  facet normal 0 0 -1
    outer loop
      vertex 44.1199 13.0506 0
      vertex 8.08011 13.0506 0
      vertex 44.0538 13.2101 0
    endloop
  endfacet
  facet normal 0 0 -1
    outer loop
      vertex 44.0135 13.3779 0
      vertex 8.2 13.55 0
      vertex 44 13.55 0
    endloop
  endfacet
  facet normal 0 -0 -1
    outer loop
      vertex 8.14616 13.2101 0
      vertex 44.0538 13.2101 0
      vertex 8.08011 13.0506 0
    endloop
  endfacet
  facet normal 0 0 -1
    outer loop
      vertex 44.0135 13.3779 0
      vertex 8.18646 13.3779 0
      vertex 8.2 13.55 0
    endloop
  endfacet
  facet normal -0 0 -1
    outer loop
      vertex 44.0135 13.3779 0
      vertex 8.14616 13.2101 0
      vertex 8.18646 13.3779 0
    endloop
  endfacet
  facet normal 0 0 -1
    outer loop
      vertex 44.0538 13.2101 0
      vertex 8.14616 13.2101 0
      vertex 44.0135 13.3779 0
    endloop
  endfacet
  facet normal 0 0 -1
    outer loop
      vertex 47.2 0 0
      vertex 7.98992 12.9034 0
      vertex 8.08011 13.0506 0
    endloop
  endfacet
  facet normal 0 0 -1
    outer loop
      vertex 5 0 0
      vertex 7.98992 12.9034 0
      vertex 47.2 0 0
    endloop
  endfacet
  facet normal 0 0 -1
    outer loop
      vertex 7.98992 12.9034 0
      vertex 5 0 0
      vertex 7.87782 12.7722 0
    endloop
  endfacet
  facet normal 0 0 -1
    outer loop
      vertex 7.87782 12.7722 0
      vertex 5 0 0
      vertex 7.74656 12.6601 0
    endloop
  endfacet
  facet normal 0 0 -1
    outer loop
      vertex 7.74656 12.6601 0
      vertex 5 0 0
      vertex 7.59939 12.5699 0
    endloop
  endfacet
  facet normal 0 -0 -1
    outer loop
      vertex 6.72638 12.1244 0
      vertex 7.59939 12.5699 0
      vertex 5 0 0
    endloop
  endfacet
  facet normal 0 0 -1
    outer loop
      vertex 7.59939 12.5699 0
      vertex 6.72638 12.1244 0
      vertex 7.43992 12.5038 0
    endloop
  endfacet
  facet normal 0 0 -1
    outer loop
      vertex 7.43992 12.5038 0
      vertex 6.94046 12.2556 0
      vertex 7.27208 12.4635 0
    endloop
  endfacet
  facet normal 0 0 -1
    outer loop
      vertex 7.27208 12.4635 0
      vertex 7.13137 12.4186 0
      vertex 7.16236 12.4549 0
    endloop
  endfacet
  facet normal 0 0 -1
    outer loop
      vertex 7.27208 12.4635 0
      vertex 6.94046 12.2556 0
      vertex 7.13137 12.4186 0
    endloop
  endfacet
  facet normal 0 0 -1
    outer loop
      vertex 7.43992 12.5038 0
      vertex 6.72638 12.1244 0
      vertex 6.94046 12.2556 0
    endloop
  endfacet
  facet normal 0 0 -1
    outer loop
      vertex 6.72638 12.1244 0
      vertex 5 0 0
      vertex 6.49443 12.0283 0
    endloop
  endfacet
  facet normal 0 0 -1
    outer loop
      vertex 6.49443 12.0283 0
      vertex 5 0 0
      vertex 6.25029 11.9697 0
    endloop
  endfacet
  facet normal 0 0 -1
    outer loop
      vertex 6.25029 11.9697 0
      vertex 5 0 0
      vertex 6 11.95 0
    endloop
  endfacet
  facet normal 0 0 -1
    outer loop
      vertex 0 5 0
      vertex 6 11.95 0
      vertex 5 0 0
    endloop
  endfacet
  facet normal -0 0 -1
    outer loop
      vertex 6 11.95 0
      vertex 0 5 0
      vertex 5.7497 11.9697 0
    endloop
  endfacet
  facet normal -0 0 -1
    outer loop
      vertex 5.7497 11.9697 0
      vertex 0 5 0
      vertex 5.50557 12.0283 0
    endloop
  endfacet
  facet normal -0 0 -1
    outer loop
      vertex 5.50557 12.0283 0
      vertex 0 5 0
      vertex 5.27361 12.1244 0
    endloop
  endfacet
  facet normal -0 0 -1
    outer loop
      vertex 5.27361 12.1244 0
      vertex 0 5 0
      vertex 5.05954 12.2556 0
    endloop
  endfacet
  facet normal -0 0 -1
    outer loop
      vertex 5.05954 12.2556 0
      vertex 0 5 0
      vertex 4.86863 12.4186 0
    endloop
  endfacet
  facet normal -0 0 -1
    outer loop
      vertex 4.86863 12.4186 0
      vertex 0 5 0
      vertex 4.70557 12.6095 0
    endloop
  endfacet
  facet normal -0 0 -1
    outer loop
      vertex 4.70557 12.6095 0
      vertex 0 5 0
      vertex 4.57439 12.8236 0
    endloop
  endfacet
  facet normal -0 0 -1
    outer loop
      vertex 4.57439 12.8236 0
      vertex 0 5 0
      vertex 4.47831 13.0556 0
    endloop
  endfacet
  facet normal -0 0 -1
    outer loop
      vertex 4.47831 13.0556 0
      vertex 0 5 0
      vertex 4.4197 13.2997 0
    endloop
  endfacet
  facet normal -0 0 -1
    outer loop
      vertex 4.4197 13.2997 0
      vertex 0 5 0
      vertex 4.4 13.55 0
    endloop
  endfacet
  facet normal 0 0 -1
    outer loop
      vertex 47.7803 13.8003 0
      vertex 52.2 22.1 0
      vertex 47.8 13.55 0
    endloop
  endfacet
  facet normal 0 0 -1
    outer loop
      vertex 47.7217 14.0444 0
      vertex 52.2 22.1 0
      vertex 47.7803 13.8003 0
    endloop
  endfacet
  facet normal 0 0 -1
    outer loop
      vertex 47.6256 14.2764 0
      vertex 52.2 22.1 0
      vertex 47.7217 14.0444 0
    endloop
  endfacet
  facet normal 0 0 -1
    outer loop
      vertex 47.4944 14.4905 0
      vertex 52.2 22.1 0
      vertex 47.6256 14.2764 0
    endloop
  endfacet
  facet normal 0 0 -1
    outer loop
      vertex 47.3314 14.6814 0
      vertex 52.2 22.1 0
      vertex 47.4944 14.4905 0
    endloop
  endfacet
  facet normal 0 0 -1
    outer loop
      vertex 47.1405 14.8444 0
      vertex 52.2 22.1 0
      vertex 47.3314 14.6814 0
    endloop
  endfacet
  facet normal 0 0 -1
    outer loop
      vertex 46.9264 14.9756 0
      vertex 52.2 22.1 0
      vertex 47.1405 14.8444 0
    endloop
  endfacet
  facet normal 0 0 -1
    outer loop
      vertex 46.6944 15.0717 0
      vertex 52.2 22.1 0
      vertex 46.9264 14.9756 0
    endloop
  endfacet
  facet normal 0 0 -1
    outer loop
      vertex 46.4503 15.1303 0
      vertex 52.2 22.1 0
      vertex 46.6944 15.0717 0
    endloop
  endfacet
  facet normal 0 0 -1
    outer loop
      vertex 46.2 15.15 0
      vertex 52.2 22.1 0
      vertex 46.4503 15.1303 0
    endloop
  endfacet
  facet normal -0 0 -1
    outer loop
      vertex 52.2 22.1 0
      vertex 46.2 15.15 0
      vertex 47.2 27.1 0
    endloop
  endfacet
  facet normal 0 0 -1
    outer loop
      vertex 45.9497 15.1303 0
      vertex 47.2 27.1 0
      vertex 46.2 15.15 0
    endloop
  endfacet
  facet normal 0 0 -1
    outer loop
      vertex 45.7056 15.0717 0
      vertex 47.2 27.1 0
      vertex 45.9497 15.1303 0
    endloop
  endfacet
  facet normal 0 0 -1
    outer loop
      vertex 45.4736 14.9756 0
      vertex 47.2 27.1 0
      vertex 45.7056 15.0717 0
    endloop
  endfacet
  facet normal 0 0 -1
    outer loop
      vertex 44.6006 14.5301 0
      vertex 45.4736 14.9756 0
      vertex 45.2595 14.8444 0
    endloop
  endfacet
  facet normal 0 0 -1
    outer loop
      vertex 44.9279 14.6365 0
      vertex 45.2595 14.8444 0
      vertex 45.0686 14.6814 0
    endloop
  endfacet
  facet normal 0 0 -1
    outer loop
      vertex 44.9279 14.6365 0
      vertex 45.0686 14.6814 0
      vertex 45.0376 14.6451 0
    endloop
  endfacet
  facet normal 0 0 -1
    outer loop
      vertex 45.2595 14.8444 0
      vertex 44.9279 14.6365 0
      vertex 44.7601 14.5962 0
    endloop
  endfacet
  facet normal 0 0 -1
    outer loop
      vertex 44.6006 14.5301 0
      vertex 45.2595 14.8444 0
      vertex 44.7601 14.5962 0
    endloop
  endfacet
  facet normal -0 0 -1
    outer loop
      vertex 45.4736 14.9756 0
      vertex 44.6006 14.5301 0
      vertex 47.2 27.1 0
    endloop
  endfacet
  facet normal 0 0 -1
    outer loop
      vertex 44.4534 14.4399 0
      vertex 47.2 27.1 0
      vertex 44.6006 14.5301 0
    endloop
  endfacet
  facet normal 0 0 -1
    outer loop
      vertex 44.3222 14.3278 0
      vertex 47.2 27.1 0
      vertex 44.4534 14.4399 0
    endloop
  endfacet
  facet normal 0 0 -1
    outer loop
      vertex 44.2101 14.1966 0
      vertex 47.2 27.1 0
      vertex 44.3222 14.3278 0
    endloop
  endfacet
  facet normal 0 0 -1
    outer loop
      vertex 44.1199 14.0494 0
      vertex 47.2 27.1 0
      vertex 44.2101 14.1966 0
    endloop
  endfacet
  facet normal 0 0 -1
    outer loop
      vertex 8.08011 14.0494 0
      vertex 44.1199 14.0494 0
      vertex 44.0538 13.8899 0
    endloop
  endfacet
  facet normal 0 0 -1
    outer loop
      vertex 8.14616 13.8899 0
      vertex 44.0538 13.8899 0
      vertex 44.0135 13.7221 0
    endloop
  endfacet
  facet normal 0 0 -1
    outer loop
      vertex 8.2 13.55 0
      vertex 44.0135 13.7221 0
      vertex 44 13.55 0
    endloop
  endfacet
  facet normal 0 0 -1
    outer loop
      vertex 8.18646 13.7221 0
      vertex 44.0135 13.7221 0
      vertex 8.2 13.55 0
    endloop
  endfacet
  facet normal 0 0 -1
    outer loop
      vertex 8.14616 13.8899 0
      vertex 44.0135 13.7221 0
      vertex 8.18646 13.7221 0
    endloop
  endfacet
  facet normal 0 0 -1
    outer loop
      vertex 44.0538 13.8899 0
      vertex 8.14616 13.8899 0
      vertex 8.08011 14.0494 0
    endloop
  endfacet
  facet normal 0 0 -1
    outer loop
      vertex 44.1199 14.0494 0
      vertex 8.08011 14.0494 0
      vertex 47.2 27.1 0
    endloop
  endfacet
  facet normal 0 0 -1
    outer loop
      vertex 7.98992 14.1966 0
      vertex 47.2 27.1 0
      vertex 8.08011 14.0494 0
    endloop
  endfacet
  facet normal 0 0 -1
    outer loop
      vertex 5 27.1 0
      vertex 7.98992 14.1966 0
      vertex 7.87782 14.3278 0
    endloop
  endfacet
  facet normal 0 0 -1
    outer loop
      vertex 5 27.1 0
      vertex 7.87782 14.3278 0
      vertex 7.74656 14.4399 0
    endloop
  endfacet
  facet normal 0 0 -1
    outer loop
      vertex 5 27.1 0
      vertex 7.74656 14.4399 0
      vertex 7.59939 14.5301 0
    endloop
  endfacet
  facet normal 0 0 -1
    outer loop
      vertex 6.72638 14.9756 0
      vertex 7.59939 14.5301 0
      vertex 7.43992 14.5962 0
    endloop
  endfacet
  facet normal 0 0 -1
    outer loop
      vertex 6.94046 14.8444 0
      vertex 7.43992 14.5962 0
      vertex 7.27208 14.6365 0
    endloop
  endfacet
  facet normal 0 0 -1
    outer loop
      vertex 7.13137 14.6814 0
      vertex 7.27208 14.6365 0
      vertex 7.16236 14.6451 0
    endloop
  endfacet
  facet normal 0 0 -1
    outer loop
      vertex 6.94046 14.8444 0
      vertex 7.27208 14.6365 0
      vertex 7.13137 14.6814 0
    endloop
  endfacet
  facet normal 0 0 -1
    outer loop
      vertex 6.72638 14.9756 0
      vertex 7.43992 14.5962 0
      vertex 6.94046 14.8444 0
    endloop
  endfacet
  facet normal 0 0 -1
    outer loop
      vertex 7.59939 14.5301 0
      vertex 6.72638 14.9756 0
      vertex 5 27.1 0
    endloop
  endfacet
  facet normal 0 0 -1
    outer loop
      vertex 5 27.1 0
      vertex 6.72638 14.9756 0
      vertex 6.49443 15.0717 0
    endloop
  endfacet
  facet normal 0 0 -1
    outer loop
      vertex 5 27.1 0
      vertex 6.49443 15.0717 0
      vertex 6.25029 15.1303 0
    endloop
  endfacet
  facet normal 0 0 -1
    outer loop
      vertex 5 27.1 0
      vertex 6.25029 15.1303 0
      vertex 6 15.15 0
    endloop
  endfacet
  facet normal 0 0 -1
    outer loop
      vertex 0 22.1 0
      vertex 6 15.15 0
      vertex 5.7497 15.1303 0
    endloop
  endfacet
  facet normal 0 0 -1
    outer loop
      vertex 0 22.1 0
      vertex 5.7497 15.1303 0
      vertex 5.50557 15.0717 0
    endloop
  endfacet
  facet normal 0 0 -1
    outer loop
      vertex 7.98992 14.1966 0
      vertex 5 27.1 0
      vertex 47.2 27.1 0
    endloop
  endfacet
  facet normal 0 0 -1
    outer loop
      vertex 0 22.1 0
      vertex 5.50557 15.0717 0
      vertex 5.27361 14.9756 0
    endloop
  endfacet
  facet normal 0 0 -1
    outer loop
      vertex 0 22.1 0
      vertex 5.27361 14.9756 0
      vertex 5.05954 14.8444 0
    endloop
  endfacet
  facet normal 0 0 -1
    outer loop
      vertex 0 22.1 0
      vertex 5.05954 14.8444 0
      vertex 4.86863 14.6814 0
    endloop
  endfacet
  facet normal 0 0 -1
    outer loop
      vertex 0 22.1 0
      vertex 4.86863 14.6814 0
      vertex 4.70557 14.4905 0
    endloop
  endfacet
  facet normal 0 0 -1
    outer loop
      vertex 0 22.1 0
      vertex 4.70557 14.4905 0
      vertex 4.57439 14.2764 0
    endloop
  endfacet
  facet normal 0 0 -1
    outer loop
      vertex 0 22.1 0
      vertex 4.57439 14.2764 0
      vertex 4.47831 14.0444 0
    endloop
  endfacet
  facet normal 0 0 -1
    outer loop
      vertex 0 22.1 0
      vertex 4.47831 14.0444 0
      vertex 4.4197 13.8003 0
    endloop
  endfacet
  facet normal 0 0 -1
    outer loop
      vertex 0 22.1 0
      vertex 4.4197 13.8003 0
      vertex 4.4 13.55 0
    endloop
  endfacet
  facet normal 0 0 -1
    outer loop
      vertex 0 22.1 0
      vertex 4.4 13.55 0
      vertex 0 5 0
    endloop
  endfacet
  facet normal 0 0 -1
    outer loop
      vertex 6 15.15 0
      vertex 0 22.1 0
      vertex 5 27.1 0
    endloop
  endfacet
  facet normal 0 1 -0
    outer loop
      vertex 47.2 27.1 0
      vertex 5 27.1 5
      vertex 47.2 27.1 5
    endloop
  endfacet
  facet normal 0 1 0
    outer loop
      vertex 5 27.1 5
      vertex 47.2 27.1 0
      vertex 5 27.1 0
    endloop
  endfacet
  facet normal -1 0 0
    outer loop
      vertex 0 22.1 0
      vertex 0 19.55 2
      vertex 0 22.1 5
    endloop
  endfacet
  facet normal -1 0 0
    outer loop
      vertex 0 22.1 0
      vertex 0 7.55 2
      vertex 0 19.55 2
    endloop
  endfacet
  facet normal -1 0 0
    outer loop
      vertex 0 5 0
      vertex 0 7.55 2
      vertex 0 22.1 0
    endloop
  endfacet
  facet normal -1 0 0
    outer loop
      vertex 0 5 5
      vertex 0 7.55 2
      vertex 0 5 0
    endloop
  endfacet
  facet normal -1 0 0
    outer loop
      vertex 0 7.55 2
      vertex 0 5 5
      vertex 0 7.55 5
    endloop
  endfacet
  facet normal -1 -0 0
    outer loop
      vertex 0 22.1 5
      vertex 0 19.55 2
      vertex 0 19.55 5
    endloop
  endfacet
  facet normal 0.707107 -0.707107 0
    outer loop
      vertex 47.2 0 5
      vertex 52.2 5 0
      vertex 52.2 5 5
    endloop
  endfacet
  facet normal 0.707107 -0.707107 0
    outer loop
      vertex 52.2 5 0
      vertex 47.2 0 5
      vertex 47.2 0 0
    endloop
  endfacet
  facet normal -1 0 0
    outer loop
      vertex 49.2 3 2
      vertex 49.2 24.1 5
      vertex 49.2 24.1 2
    endloop
  endfacet
  facet normal -1 -0 0
    outer loop
      vertex 49.2 24.1 5
      vertex 49.2 3 2
      vertex 49.2 3 5
    endloop
  endfacet
  facet normal 0 0 1
    outer loop
      vertex 4.4 13.55 2
      vertex 0 7.55 2
      vertex 4.4197 13.2997 2
    endloop
  endfacet
  facet normal 0 0 1
    outer loop
      vertex 4.4197 13.2997 2
      vertex 0 7.55 2
      vertex 3 7.55 2
    endloop
  endfacet
  facet normal 0 0 1
    outer loop
      vertex 49.2 24.1 2
      vertex 47.8 13.55 2
      vertex 49.2 3 2
    endloop
  endfacet
  facet normal 0 0 1
    outer loop
      vertex 49.2 24.1 2
      vertex 47.7803 13.8003 2
      vertex 47.8 13.55 2
    endloop
  endfacet
  facet normal 0 0 1
    outer loop
      vertex 49.2 24.1 2
      vertex 47.7217 14.0444 2
      vertex 47.7803 13.8003 2
    endloop
  endfacet
  facet normal 0 0 1
    outer loop
      vertex 49.2 24.1 2
      vertex 47.6256 14.2764 2
      vertex 47.7217 14.0444 2
    endloop
  endfacet
  facet normal 0 0 1
    outer loop
      vertex 49.2 24.1 2
      vertex 47.4944 14.4905 2
      vertex 47.6256 14.2764 2
    endloop
  endfacet
  facet normal 0 0 1
    outer loop
      vertex 49.2 24.1 2
      vertex 47.3314 14.6814 2
      vertex 47.4944 14.4905 2
    endloop
  endfacet
  facet normal 0 0 1
    outer loop
      vertex 49.2 24.1 2
      vertex 47.1405 14.8444 2
      vertex 47.3314 14.6814 2
    endloop
  endfacet
  facet normal 0 0 1
    outer loop
      vertex 49.2 24.1 2
      vertex 46.9264 14.9756 2
      vertex 47.1405 14.8444 2
    endloop
  endfacet
  facet normal 0 0 1
    outer loop
      vertex 49.2 24.1 2
      vertex 46.6944 15.0717 2
      vertex 46.9264 14.9756 2
    endloop
  endfacet
  facet normal 0 0 1
    outer loop
      vertex 49.2 24.1 2
      vertex 46.4503 15.1303 2
      vertex 46.6944 15.0717 2
    endloop
  endfacet
  facet normal 0 0 1
    outer loop
      vertex 49.2 24.1 2
      vertex 46.2 15.15 2
      vertex 46.4503 15.1303 2
    endloop
  endfacet
  facet normal 0 0 1
    outer loop
      vertex 49.2 24.1 2
      vertex 45.9497 15.1303 2
      vertex 46.2 15.15 2
    endloop
  endfacet
  facet normal 0 0 1
    outer loop
      vertex 49.2 24.1 2
      vertex 45.7056 15.0717 2
      vertex 45.9497 15.1303 2
    endloop
  endfacet
  facet normal 0 0 1
    outer loop
      vertex 49.2 24.1 2
      vertex 45.4736 14.9756 2
      vertex 45.7056 15.0717 2
    endloop
  endfacet
  facet normal 0 0 1
    outer loop
      vertex 44.6006 14.5301 2
      vertex 45.4736 14.9756 2
      vertex 49.2 24.1 2
    endloop
  endfacet
  facet normal 0 0 1
    outer loop
      vertex 45.4736 14.9756 2
      vertex 44.6006 14.5301 2
      vertex 45.2595 14.8444 2
    endloop
  endfacet
  facet normal 0 -0 1
    outer loop
      vertex 44.9279 14.6365 2
      vertex 45.2595 14.8444 2
      vertex 44.7601 14.5962 2
    endloop
  endfacet
  facet normal 0 0 1
    outer loop
      vertex 45.0686 14.6814 2
      vertex 44.9279 14.6365 2
      vertex 45.0376 14.6451 2
    endloop
  endfacet
  facet normal 0 0 1
    outer loop
      vertex 45.2595 14.8444 2
      vertex 44.9279 14.6365 2
      vertex 45.0686 14.6814 2
    endloop
  endfacet
  facet normal 0 0 1
    outer loop
      vertex 45.2595 14.8444 2
      vertex 44.6006 14.5301 2
      vertex 44.7601 14.5962 2
    endloop
  endfacet
  facet normal 0 0 1
    outer loop
      vertex 49.2 24.1 2
      vertex 44.4534 14.4399 2
      vertex 44.6006 14.5301 2
    endloop
  endfacet
  facet normal 0 0 1
    outer loop
      vertex 49.2 24.1 2
      vertex 44.3222 14.3278 2
      vertex 44.4534 14.4399 2
    endloop
  endfacet
  facet normal 0 0 1
    outer loop
      vertex 49.2 24.1 2
      vertex 44.2101 14.1966 2
      vertex 44.3222 14.3278 2
    endloop
  endfacet
  facet normal 0 0 1
    outer loop
      vertex 7.98992 14.1966 2
      vertex 44.2101 14.1966 2
      vertex 49.2 24.1 2
    endloop
  endfacet
  facet normal 0 0 1
    outer loop
      vertex 44.0135 13.7221 2
      vertex 8.2 13.55 2
      vertex 44 13.55 2
    endloop
  endfacet
  facet normal 0 0 1
    outer loop
      vertex 8.18646 13.7221 2
      vertex 44.0135 13.7221 2
      vertex 44.0538 13.8899 2
    endloop
  endfacet
  facet normal 0 0 1
    outer loop
      vertex 8.14616 13.8899 2
      vertex 44.0538 13.8899 2
      vertex 44.1199 14.0494 2
    endloop
  endfacet
  facet normal 0 0 1
    outer loop
      vertex 44.2101 14.1966 2
      vertex 7.98992 14.1966 2
      vertex 44.1199 14.0494 2
    endloop
  endfacet
  facet normal 0 0 1
    outer loop
      vertex 44.0135 13.7221 2
      vertex 8.18646 13.7221 2
      vertex 8.2 13.55 2
    endloop
  endfacet
  facet normal 0 0 1
    outer loop
      vertex 44.0538 13.8899 2
      vertex 8.14616 13.8899 2
      vertex 8.18646 13.7221 2
    endloop
  endfacet
  facet normal 0 0 1
    outer loop
      vertex 44.1199 14.0494 2
      vertex 8.08011 14.0494 2
      vertex 8.14616 13.8899 2
    endloop
  endfacet
  facet normal 0 0 1
    outer loop
      vertex 44.1199 14.0494 2
      vertex 7.98992 14.1966 2
      vertex 8.08011 14.0494 2
    endloop
  endfacet
  facet normal 0 0 1
    outer loop
      vertex 49.2 24.1 2
      vertex 7.87782 14.3278 2
      vertex 7.98992 14.1966 2
    endloop
  endfacet
  facet normal -0 0 1
    outer loop
      vertex 3 24.1 2
      vertex 7.87782 14.3278 2
      vertex 49.2 24.1 2
    endloop
  endfacet
  facet normal 0 0 1
    outer loop
      vertex 7.87782 14.3278 2
      vertex 3 24.1 2
      vertex 7.74656 14.4399 2
    endloop
  endfacet
  facet normal 0 0 1
    outer loop
      vertex 7.74656 14.4399 2
      vertex 3 24.1 2
      vertex 7.59939 14.5301 2
    endloop
  endfacet
  facet normal -0 -0 1
    outer loop
      vertex 6.72638 14.9756 2
      vertex 7.59939 14.5301 2
      vertex 3 24.1 2
    endloop
  endfacet
  facet normal 0 0 1
    outer loop
      vertex 7.59939 14.5301 2
      vertex 6.72638 14.9756 2
      vertex 7.43992 14.5962 2
    endloop
  endfacet
  facet normal 0 0 1
    outer loop
      vertex 7.43992 14.5962 2
      vertex 6.94046 14.8444 2
      vertex 7.27208 14.6365 2
    endloop
  endfacet
  facet normal 0 0 1
    outer loop
      vertex 7.27208 14.6365 2
      vertex 7.13137 14.6814 2
      vertex 7.16236 14.6451 2
    endloop
  endfacet
  facet normal 0 0 1
    outer loop
      vertex 7.27208 14.6365 2
      vertex 6.94046 14.8444 2
      vertex 7.13137 14.6814 2
    endloop
  endfacet
  facet normal 0 0 1
    outer loop
      vertex 7.43992 14.5962 2
      vertex 6.72638 14.9756 2
      vertex 6.94046 14.8444 2
    endloop
  endfacet
  facet normal -0 0 1
    outer loop
      vertex 3 19.55 2
      vertex 6.72638 14.9756 2
      vertex 3 24.1 2
    endloop
  endfacet
  facet normal 0 0 1
    outer loop
      vertex 6.72638 14.9756 2
      vertex 3 19.55 2
      vertex 6.49443 15.0717 2
    endloop
  endfacet
  facet normal 0 0 1
    outer loop
      vertex 6.49443 15.0717 2
      vertex 3 19.55 2
      vertex 6.25029 15.1303 2
    endloop
  endfacet
  facet normal 0 0 1
    outer loop
      vertex 4.57439 14.2764 2
      vertex 0 19.55 2
      vertex 4.47831 14.0444 2
    endloop
  endfacet
  facet normal -0 0 1
    outer loop
      vertex 0 19.55 2
      vertex 4.57439 14.2764 2
      vertex 3 19.55 2
    endloop
  endfacet
  facet normal 0 0 1
    outer loop
      vertex 4.70557 14.4905 2
      vertex 3 19.55 2
      vertex 4.57439 14.2764 2
    endloop
  endfacet
  facet normal 0 0 1
    outer loop
      vertex 4.86863 14.6814 2
      vertex 3 19.55 2
      vertex 4.70557 14.4905 2
    endloop
  endfacet
  facet normal 0 0 1
    outer loop
      vertex 5.05954 14.8444 2
      vertex 3 19.55 2
      vertex 4.86863 14.6814 2
    endloop
  endfacet
  facet normal 0 0 1
    outer loop
      vertex 5.27361 14.9756 2
      vertex 3 19.55 2
      vertex 5.05954 14.8444 2
    endloop
  endfacet
  facet normal 0 0 1
    outer loop
      vertex 5.50557 15.0717 2
      vertex 3 19.55 2
      vertex 5.27361 14.9756 2
    endloop
  endfacet
  facet normal 0 0 1
    outer loop
      vertex 5.7497 15.1303 2
      vertex 3 19.55 2
      vertex 5.50557 15.0717 2
    endloop
  endfacet
  facet normal 0 0 1
    outer loop
      vertex 6 15.15 2
      vertex 3 19.55 2
      vertex 5.7497 15.1303 2
    endloop
  endfacet
  facet normal 0 0 1
    outer loop
      vertex 6.25029 15.1303 2
      vertex 3 19.55 2
      vertex 6 15.15 2
    endloop
  endfacet
  facet normal -0 0 1
    outer loop
      vertex 47.7803 13.2997 2
      vertex 49.2 3 2
      vertex 47.8 13.55 2
    endloop
  endfacet
  facet normal -0 0 1
    outer loop
      vertex 47.7217 13.0556 2
      vertex 49.2 3 2
      vertex 47.7803 13.2997 2
    endloop
  endfacet
  facet normal -0 0 1
    outer loop
      vertex 47.6256 12.8236 2
      vertex 49.2 3 2
      vertex 47.7217 13.0556 2
    endloop
  endfacet
  facet normal -0 0 1
    outer loop
      vertex 47.4944 12.6095 2
      vertex 49.2 3 2
      vertex 47.6256 12.8236 2
    endloop
  endfacet
  facet normal -0 0 1
    outer loop
      vertex 47.3314 12.4186 2
      vertex 49.2 3 2
      vertex 47.4944 12.6095 2
    endloop
  endfacet
  facet normal -0 0 1
    outer loop
      vertex 47.1405 12.2556 2
      vertex 49.2 3 2
      vertex 47.3314 12.4186 2
    endloop
  endfacet
  facet normal -0 0 1
    outer loop
      vertex 46.9264 12.1244 2
      vertex 49.2 3 2
      vertex 47.1405 12.2556 2
    endloop
  endfacet
  facet normal -0 0 1
    outer loop
      vertex 46.6944 12.0283 2
      vertex 49.2 3 2
      vertex 46.9264 12.1244 2
    endloop
  endfacet
  facet normal -0 0 1
    outer loop
      vertex 46.4503 11.9697 2
      vertex 49.2 3 2
      vertex 46.6944 12.0283 2
    endloop
  endfacet
  facet normal -0 0 1
    outer loop
      vertex 46.2 11.95 2
      vertex 49.2 3 2
      vertex 46.4503 11.9697 2
    endloop
  endfacet
  facet normal 0 0 1
    outer loop
      vertex 45.9497 11.9697 2
      vertex 49.2 3 2
      vertex 46.2 11.95 2
    endloop
  endfacet
  facet normal 0 0 1
    outer loop
      vertex 45.7056 12.0283 2
      vertex 49.2 3 2
      vertex 45.9497 11.9697 2
    endloop
  endfacet
  facet normal 0 0 1
    outer loop
      vertex 45.4736 12.1244 2
      vertex 49.2 3 2
      vertex 45.7056 12.0283 2
    endloop
  endfacet
  facet normal 0 0 1
    outer loop
      vertex 44.6006 12.5699 2
      vertex 45.4736 12.1244 2
      vertex 45.2595 12.2556 2
    endloop
  endfacet
  facet normal 0 0 1
    outer loop
      vertex 44.9279 12.4635 2
      vertex 45.2595 12.2556 2
      vertex 45.0686 12.4186 2
    endloop
  endfacet
  facet normal 0 0 1
    outer loop
      vertex 44.9279 12.4635 2
      vertex 45.0686 12.4186 2
      vertex 45.0376 12.4549 2
    endloop
  endfacet
  facet normal 0 0 1
    outer loop
      vertex 45.2595 12.2556 2
      vertex 44.9279 12.4635 2
      vertex 44.7601 12.5038 2
    endloop
  endfacet
  facet normal 0 0 1
    outer loop
      vertex 44.6006 12.5699 2
      vertex 45.2595 12.2556 2
      vertex 44.7601 12.5038 2
    endloop
  endfacet
  facet normal 0 0 1
    outer loop
      vertex 45.4736 12.1244 2
      vertex 44.6006 12.5699 2
      vertex 49.2 3 2
    endloop
  endfacet
  facet normal 0 0 1
    outer loop
      vertex 44.4534 12.6601 2
      vertex 49.2 3 2
      vertex 44.6006 12.5699 2
    endloop
  endfacet
  facet normal 0 0 1
    outer loop
      vertex 44.3222 12.7722 2
      vertex 49.2 3 2
      vertex 44.4534 12.6601 2
    endloop
  endfacet
  facet normal 0 0 1
    outer loop
      vertex 44.2101 12.9034 2
      vertex 49.2 3 2
      vertex 44.3222 12.7722 2
    endloop
  endfacet
  facet normal 0 0 1
    outer loop
      vertex 7.98992 12.9034 2
      vertex 44.2101 12.9034 2
      vertex 44.1199 13.0506 2
    endloop
  endfacet
  facet normal -0 0 1
    outer loop
      vertex 8.2 13.55 2
      vertex 44.0135 13.3779 2
      vertex 44 13.55 2
    endloop
  endfacet
  facet normal 0 0 1
    outer loop
      vertex 8.18646 13.3779 2
      vertex 44.0135 13.3779 2
      vertex 8.2 13.55 2
    endloop
  endfacet
  facet normal 0 0 1
    outer loop
      vertex 44.0135 13.3779 2
      vertex 8.18646 13.3779 2
      vertex 44.0538 13.2101 2
    endloop
  endfacet
  facet normal 0 0 1
    outer loop
      vertex 8.14616 13.2101 2
      vertex 44.0538 13.2101 2
      vertex 8.18646 13.3779 2
    endloop
  endfacet
  facet normal 0 0 1
    outer loop
      vertex 44.0538 13.2101 2
      vertex 8.14616 13.2101 2
      vertex 44.1199 13.0506 2
    endloop
  endfacet
  facet normal 0 0 1
    outer loop
      vertex 8.08011 13.0506 2
      vertex 44.1199 13.0506 2
      vertex 8.14616 13.2101 2
    endloop
  endfacet
  facet normal 0 0 1
    outer loop
      vertex 7.98992 12.9034 2
      vertex 44.1199 13.0506 2
      vertex 8.08011 13.0506 2
    endloop
  endfacet
  facet normal 0 0 1
    outer loop
      vertex 44.2101 12.9034 2
      vertex 7.98992 12.9034 2
      vertex 49.2 3 2
    endloop
  endfacet
  facet normal -0 0 1
    outer loop
      vertex 7.87782 12.7722 2
      vertex 49.2 3 2
      vertex 7.98992 12.9034 2
    endloop
  endfacet
  facet normal 0 0 1
    outer loop
      vertex 3 3 2
      vertex 7.87782 12.7722 2
      vertex 7.74656 12.6601 2
    endloop
  endfacet
  facet normal 0 0 1
    outer loop
      vertex 3 3 2
      vertex 7.74656 12.6601 2
      vertex 7.59939 12.5699 2
    endloop
  endfacet
  facet normal 0 0 1
    outer loop
      vertex 6.72638 12.1244 2
      vertex 7.59939 12.5699 2
      vertex 7.43992 12.5038 2
    endloop
  endfacet
  facet normal 0 0 1
    outer loop
      vertex 6.94046 12.2556 2
      vertex 7.43992 12.5038 2
      vertex 7.27208 12.4635 2
    endloop
  endfacet
  facet normal 0 0 1
    outer loop
      vertex 7.13137 12.4186 2
      vertex 7.27208 12.4635 2
      vertex 7.16236 12.4549 2
    endloop
  endfacet
  facet normal 0 0 1
    outer loop
      vertex 6.94046 12.2556 2
      vertex 7.27208 12.4635 2
      vertex 7.13137 12.4186 2
    endloop
  endfacet
  facet normal 0 0 1
    outer loop
      vertex 6.72638 12.1244 2
      vertex 7.43992 12.5038 2
      vertex 6.94046 12.2556 2
    endloop
  endfacet
  facet normal 0 0 1
    outer loop
      vertex 7.59939 12.5699 2
      vertex 6.72638 12.1244 2
      vertex 3 3 2
    endloop
  endfacet
  facet normal 0 0 1
    outer loop
      vertex 3 7.55 2
      vertex 6.72638 12.1244 2
      vertex 6.49443 12.0283 2
    endloop
  endfacet
  facet normal 0 0 1
    outer loop
      vertex 3 7.55 2
      vertex 6.49443 12.0283 2
      vertex 6.25029 11.9697 2
    endloop
  endfacet
  facet normal 0 0 1
    outer loop
      vertex 3 7.55 2
      vertex 6.25029 11.9697 2
      vertex 6 11.95 2
    endloop
  endfacet
  facet normal 0 0 1
    outer loop
      vertex 3 7.55 2
      vertex 6 11.95 2
      vertex 5.7497 11.9697 2
    endloop
  endfacet
  facet normal 0 0 1
    outer loop
      vertex 4.47831 14.0444 2
      vertex 0 19.55 2
      vertex 4.4197 13.8003 2
    endloop
  endfacet
  facet normal 0 0 1
    outer loop
      vertex 4.4197 13.8003 2
      vertex 0 19.55 2
      vertex 4.4 13.55 2
    endloop
  endfacet
  facet normal 0 0 1
    outer loop
      vertex 0 7.55 2
      vertex 4.4 13.55 2
      vertex 0 19.55 2
    endloop
  endfacet
  facet normal 0 0 1
    outer loop
      vertex 3 7.55 2
      vertex 4.47831 13.0556 2
      vertex 4.4197 13.2997 2
    endloop
  endfacet
  facet normal 0 0 1
    outer loop
      vertex 3 7.55 2
      vertex 4.57439 12.8236 2
      vertex 4.47831 13.0556 2
    endloop
  endfacet
  facet normal 0 0 1
    outer loop
      vertex 3 7.55 2
      vertex 4.70557 12.6095 2
      vertex 4.57439 12.8236 2
    endloop
  endfacet
  facet normal 0 0 1
    outer loop
      vertex 3 7.55 2
      vertex 4.86863 12.4186 2
      vertex 4.70557 12.6095 2
    endloop
  endfacet
  facet normal 0 0 1
    outer loop
      vertex 3 7.55 2
      vertex 5.05954 12.2556 2
      vertex 4.86863 12.4186 2
    endloop
  endfacet
  facet normal 0 0 1
    outer loop
      vertex 3 7.55 2
      vertex 5.27361 12.1244 2
      vertex 5.05954 12.2556 2
    endloop
  endfacet
  facet normal 0 0 1
    outer loop
      vertex 3 7.55 2
      vertex 5.50557 12.0283 2
      vertex 5.27361 12.1244 2
    endloop
  endfacet
  facet normal 0 0 1
    outer loop
      vertex 3 7.55 2
      vertex 5.7497 11.9697 2
      vertex 5.50557 12.0283 2
    endloop
  endfacet
  facet normal 0 0 1
    outer loop
      vertex 6.72638 12.1244 2
      vertex 3 7.55 2
      vertex 3 3 2
    endloop
  endfacet
  facet normal 0 0 1
    outer loop
      vertex 7.87782 12.7722 2
      vertex 3 3 2
      vertex 49.2 3 2
    endloop
  endfacet
  facet normal 1 -0 0
    outer loop
      vertex 3 3 5
      vertex 3 7.55 2
      vertex 3 7.55 5
    endloop
  endfacet
  facet normal 1 0 0
    outer loop
      vertex 3 7.55 2
      vertex 3 3 5
      vertex 3 3 2
    endloop
  endfacet
  facet normal 1 -0 0
    outer loop
      vertex 3 19.55 5
      vertex 3 24.1 2
      vertex 3 24.1 5
    endloop
  endfacet
  facet normal 1 0 0
    outer loop
      vertex 3 24.1 2
      vertex 3 19.55 5
      vertex 3 19.55 2
    endloop
  endfacet
  facet normal 0 -1 0
    outer loop
      vertex 3 24.1 2
      vertex 49.2 24.1 5
      vertex 3 24.1 5
    endloop
  endfacet
  facet normal 0 -1 -0
    outer loop
      vertex 49.2 24.1 5
      vertex 3 24.1 2
      vertex 49.2 24.1 2
    endloop
  endfacet
  facet normal 0 1 -0
    outer loop
      vertex 49.2 3 2
      vertex 3 3 5
      vertex 49.2 3 5
    endloop
  endfacet
  facet normal 0 1 0
    outer loop
      vertex 3 3 5
      vertex 49.2 3 2
      vertex 3 3 2
    endloop
  endfacet
  facet normal 0 -1 0
    outer loop
      vertex 0 19.55 2
      vertex 3 19.55 5
      vertex 0 19.55 5
    endloop
  endfacet
  facet normal 0 -1 -0
    outer loop
      vertex 3 19.55 5
      vertex 0 19.55 2
      vertex 3 19.55 2
    endloop
  endfacet
  facet normal 0 1 -0
    outer loop
      vertex 3 7.55 2
      vertex 0 7.55 5
      vertex 3 7.55 5
    endloop
  endfacet
  facet normal 0 1 0
    outer loop
      vertex 0 7.55 5
      vertex 3 7.55 2
      vertex 0 7.55 2
    endloop
  endfacet
  facet normal -0.233474 0.972363 0
    outer loop
      vertex 7.43992 12.5038 0
      vertex 7.27208 12.4635 2
      vertex 7.43992 12.5038 2
    endloop
  endfacet
  facet normal -0.233474 0.972363 0
    outer loop
      vertex 7.27208 12.4635 2
      vertex 7.43992 12.5038 0
      vertex 7.27208 12.4635 0
    endloop
  endfacet
  facet normal -0.97235 -0.233526 0
    outer loop
      vertex 8.18646 13.7221 0
      vertex 8.14616 13.8899 2
      vertex 8.14616 13.8899 0
    endloop
  endfacet
  facet normal -0.97235 -0.233526 0
    outer loop
      vertex 8.14616 13.8899 2
      vertex 8.18646 13.7221 0
      vertex 8.18646 13.7221 2
    endloop
  endfacet
  facet normal -0.996919 -0.0784328 0
    outer loop
      vertex 8.2 13.55 0
      vertex 8.18646 13.7221 2
      vertex 8.18646 13.7221 0
    endloop
  endfacet
  facet normal -0.996919 -0.0784328 0
    outer loop
      vertex 8.18646 13.7221 2
      vertex 8.2 13.55 0
      vertex 8.2 13.55 2
    endloop
  endfacet
  facet normal -0.923914 -0.382599 0
    outer loop
      vertex 8.14616 13.8899 0
      vertex 8.08011 14.0494 2
      vertex 8.08011 14.0494 0
    endloop
  endfacet
  facet normal -0.923914 -0.382599 0
    outer loop
      vertex 8.08011 14.0494 2
      vertex 8.14616 13.8899 0
      vertex 8.14616 13.8899 2
    endloop
  endfacet
  facet normal -0.97235 0.233526 0
    outer loop
      vertex 8.14616 13.2101 0
      vertex 8.18646 13.3779 2
      vertex 8.18646 13.3779 0
    endloop
  endfacet
  facet normal -0.97235 0.233526 0
    outer loop
      vertex 8.18646 13.3779 2
      vertex 8.14616 13.2101 0
      vertex 8.14616 13.2101 2
    endloop
  endfacet
  facet normal -0.522558 -0.852604 0
    outer loop
      vertex 7.59939 14.5301 0
      vertex 7.74656 14.4399 2
      vertex 7.59939 14.5301 2
    endloop
  endfacet
  facet normal -0.522558 -0.852604 -0
    outer loop
      vertex 7.74656 14.4399 2
      vertex 7.59939 14.5301 0
      vertex 7.74656 14.4399 0
    endloop
  endfacet
  facet normal -0.649426 -0.760425 0
    outer loop
      vertex 7.74656 14.4399 0
      vertex 7.87782 14.3278 2
      vertex 7.74656 14.4399 2
    endloop
  endfacet
  facet normal -0.649426 -0.760425 -0
    outer loop
      vertex 7.87782 14.3278 2
      vertex 7.74656 14.4399 0
      vertex 7.87782 14.3278 0
    endloop
  endfacet
  facet normal -0.923914 0.382599 0
    outer loop
      vertex 8.08011 13.0506 0
      vertex 8.14616 13.2101 2
      vertex 8.14616 13.2101 0
    endloop
  endfacet
  facet normal -0.923914 0.382599 0
    outer loop
      vertex 8.14616 13.2101 2
      vertex 8.08011 13.0506 0
      vertex 8.08011 13.0506 2
    endloop
  endfacet
  facet normal -0.760278 0.649598 0
    outer loop
      vertex 7.87782 12.7722 0
      vertex 7.98992 12.9034 2
      vertex 7.98992 12.9034 0
    endloop
  endfacet
  facet normal -0.760278 0.649598 0
    outer loop
      vertex 7.98992 12.9034 2
      vertex 7.87782 12.7722 0
      vertex 7.87782 12.7722 2
    endloop
  endfacet
  facet normal -0.852677 0.522438 0
    outer loop
      vertex 7.98992 12.9034 0
      vertex 8.08011 13.0506 2
      vertex 8.08011 13.0506 0
    endloop
  endfacet
  facet normal -0.852677 0.522438 0
    outer loop
      vertex 8.08011 13.0506 2
      vertex 7.98992 12.9034 0
      vertex 7.98992 12.9034 2
    endloop
  endfacet
  facet normal -0.382908 0.923787 0
    outer loop
      vertex 7.59939 12.5699 0
      vertex 7.43992 12.5038 2
      vertex 7.59939 12.5699 2
    endloop
  endfacet
  facet normal -0.382908 0.923787 0
    outer loop
      vertex 7.43992 12.5038 2
      vertex 7.59939 12.5699 0
      vertex 7.43992 12.5038 0
    endloop
  endfacet
  facet normal -0.0781417 -0.996942 0
    outer loop
      vertex 7.16236 14.6451 0
      vertex 7.27208 14.6365 2
      vertex 7.16236 14.6451 2
    endloop
  endfacet
  facet normal -0.0781417 -0.996942 -0
    outer loop
      vertex 7.27208 14.6365 2
      vertex 7.16236 14.6451 0
      vertex 7.27208 14.6365 0
    endloop
  endfacet
  facet normal -0.852677 -0.522438 0
    outer loop
      vertex 8.08011 14.0494 0
      vertex 7.98992 14.1966 2
      vertex 7.98992 14.1966 0
    endloop
  endfacet
  facet normal -0.852677 -0.522438 0
    outer loop
      vertex 7.98992 14.1966 2
      vertex 8.08011 14.0494 0
      vertex 8.08011 14.0494 2
    endloop
  endfacet
  facet normal -0.382908 -0.923787 0
    outer loop
      vertex 7.43992 14.5962 0
      vertex 7.59939 14.5301 2
      vertex 7.43992 14.5962 2
    endloop
  endfacet
  facet normal -0.382908 -0.923787 -0
    outer loop
      vertex 7.59939 14.5301 2
      vertex 7.43992 14.5962 0
      vertex 7.59939 14.5301 0
    endloop
  endfacet
  facet normal -0.233474 -0.972363 0
    outer loop
      vertex 7.27208 14.6365 0
      vertex 7.43992 14.5962 2
      vertex 7.27208 14.6365 2
    endloop
  endfacet
  facet normal -0.233474 -0.972363 -0
    outer loop
      vertex 7.43992 14.5962 2
      vertex 7.27208 14.6365 0
      vertex 7.43992 14.5962 0
    endloop
  endfacet
  facet normal -0.996919 0.0784328 0
    outer loop
      vertex 8.18646 13.3779 0
      vertex 8.2 13.55 2
      vertex 8.2 13.55 0
    endloop
  endfacet
  facet normal -0.996919 0.0784328 0
    outer loop
      vertex 8.2 13.55 2
      vertex 8.18646 13.3779 0
      vertex 8.18646 13.3779 2
    endloop
  endfacet
  facet normal -0.522558 0.852604 0
    outer loop
      vertex 7.74656 12.6601 0
      vertex 7.59939 12.5699 2
      vertex 7.74656 12.6601 2
    endloop
  endfacet
  facet normal -0.522558 0.852604 0
    outer loop
      vertex 7.59939 12.5699 2
      vertex 7.74656 12.6601 0
      vertex 7.59939 12.5699 0
    endloop
  endfacet
  facet normal -0.0781417 0.996942 0
    outer loop
      vertex 7.27208 12.4635 0
      vertex 7.16236 12.4549 2
      vertex 7.27208 12.4635 2
    endloop
  endfacet
  facet normal -0.0781417 0.996942 0
    outer loop
      vertex 7.16236 12.4549 2
      vertex 7.27208 12.4635 0
      vertex 7.16236 12.4549 0
    endloop
  endfacet
  facet normal -0.649426 0.760425 0
    outer loop
      vertex 7.87782 12.7722 0
      vertex 7.74656 12.6601 2
      vertex 7.87782 12.7722 2
    endloop
  endfacet
  facet normal -0.649426 0.760425 0
    outer loop
      vertex 7.74656 12.6601 2
      vertex 7.87782 12.7722 0
      vertex 7.74656 12.6601 0
    endloop
  endfacet
  facet normal -0.760278 -0.649598 0
    outer loop
      vertex 7.98992 14.1966 0
      vertex 7.87782 14.3278 2
      vertex 7.87782 14.3278 0
    endloop
  endfacet
  facet normal -0.760278 -0.649598 0
    outer loop
      vertex 7.87782 14.3278 2
      vertex 7.98992 14.1966 0
      vertex 7.98992 14.1966 2
    endloop
  endfacet
  facet normal 0.0781558 -0.996941 0
    outer loop
      vertex 44.9279 14.6365 0
      vertex 45.0376 14.6451 2
      vertex 44.9279 14.6365 2
    endloop
  endfacet
  facet normal 0.0781558 -0.996941 0
    outer loop
      vertex 45.0376 14.6451 2
      vertex 44.9279 14.6365 0
      vertex 45.0376 14.6451 0
    endloop
  endfacet
  facet normal 0.852651 -0.522481 0
    outer loop
      vertex 44.1199 14.0494 2
      vertex 44.2101 14.1966 0
      vertex 44.2101 14.1966 2
    endloop
  endfacet
  facet normal 0.852651 -0.522481 0
    outer loop
      vertex 44.2101 14.1966 0
      vertex 44.1199 14.0494 2
      vertex 44.1199 14.0494 0
    endloop
  endfacet
  facet normal 0.233526 0.97235 -0
    outer loop
      vertex 44.9279 12.4635 0
      vertex 44.7601 12.5038 2
      vertex 44.9279 12.4635 2
    endloop
  endfacet
  facet normal 0.233526 0.97235 0
    outer loop
      vertex 44.7601 12.5038 2
      vertex 44.9279 12.4635 0
      vertex 44.7601 12.5038 0
    endloop
  endfacet
  facet normal 0.649598 -0.760278 0
    outer loop
      vertex 44.3222 14.3278 0
      vertex 44.4534 14.4399 2
      vertex 44.3222 14.3278 2
    endloop
  endfacet
  facet normal 0.649598 -0.760278 0
    outer loop
      vertex 44.4534 14.4399 2
      vertex 44.3222 14.3278 0
      vertex 44.4534 14.4399 0
    endloop
  endfacet
  facet normal 0.923812 -0.382846 0
    outer loop
      vertex 44.0538 13.8899 2
      vertex 44.1199 14.0494 0
      vertex 44.1199 14.0494 2
    endloop
  endfacet
  facet normal 0.923812 -0.382846 0
    outer loop
      vertex 44.1199 14.0494 0
      vertex 44.0538 13.8899 2
      vertex 44.0538 13.8899 0
    endloop
  endfacet
  facet normal 0.97235 0.233526 0
    outer loop
      vertex 44.0538 13.2101 2
      vertex 44.0135 13.3779 0
      vertex 44.0135 13.3779 2
    endloop
  endfacet
  facet normal 0.97235 0.233526 0
    outer loop
      vertex 44.0135 13.3779 0
      vertex 44.0538 13.2101 2
      vertex 44.0538 13.2101 0
    endloop
  endfacet
  facet normal 0.760278 -0.649598 0
    outer loop
      vertex 44.2101 14.1966 2
      vertex 44.3222 14.3278 0
      vertex 44.3222 14.3278 2
    endloop
  endfacet
  facet normal 0.760278 -0.649598 0
    outer loop
      vertex 44.3222 14.3278 0
      vertex 44.2101 14.1966 2
      vertex 44.2101 14.1966 0
    endloop
  endfacet
  facet normal 0.233526 -0.97235 0
    outer loop
      vertex 44.7601 14.5962 0
      vertex 44.9279 14.6365 2
      vertex 44.7601 14.5962 2
    endloop
  endfacet
  facet normal 0.233526 -0.97235 0
    outer loop
      vertex 44.9279 14.6365 2
      vertex 44.7601 14.5962 0
      vertex 44.9279 14.6365 0
    endloop
  endfacet
  facet normal 0.760278 0.649598 0
    outer loop
      vertex 44.3222 12.7722 2
      vertex 44.2101 12.9034 0
      vertex 44.2101 12.9034 2
    endloop
  endfacet
  facet normal 0.760278 0.649598 0
    outer loop
      vertex 44.2101 12.9034 0
      vertex 44.3222 12.7722 2
      vertex 44.3222 12.7722 0
    endloop
  endfacet
  facet normal 0.522481 -0.852651 0
    outer loop
      vertex 44.4534 14.4399 0
      vertex 44.6006 14.5301 2
      vertex 44.4534 14.4399 2
    endloop
  endfacet
  facet normal 0.522481 -0.852651 0
    outer loop
      vertex 44.6006 14.5301 2
      vertex 44.4534 14.4399 0
      vertex 44.6006 14.5301 0
    endloop
  endfacet
  facet normal 0.0781558 0.996941 -0
    outer loop
      vertex 45.0376 12.4549 0
      vertex 44.9279 12.4635 2
      vertex 45.0376 12.4549 2
    endloop
  endfacet
  facet normal 0.0781558 0.996941 0
    outer loop
      vertex 44.9279 12.4635 2
      vertex 45.0376 12.4549 0
      vertex 44.9279 12.4635 0
    endloop
  endfacet
  facet normal 0.97235 -0.233526 0
    outer loop
      vertex 44.0135 13.7221 2
      vertex 44.0538 13.8899 0
      vertex 44.0538 13.8899 2
    endloop
  endfacet
  facet normal 0.97235 -0.233526 0
    outer loop
      vertex 44.0538 13.8899 0
      vertex 44.0135 13.7221 2
      vertex 44.0135 13.7221 0
    endloop
  endfacet
  facet normal 0.923812 0.382846 0
    outer loop
      vertex 44.1199 13.0506 2
      vertex 44.0538 13.2101 0
      vertex 44.0538 13.2101 2
    endloop
  endfacet
  facet normal 0.923812 0.382846 0
    outer loop
      vertex 44.0538 13.2101 0
      vertex 44.1199 13.0506 2
      vertex 44.1199 13.0506 0
    endloop
  endfacet
  facet normal 0.382846 0.923812 -0
    outer loop
      vertex 44.7601 12.5038 0
      vertex 44.6006 12.5699 2
      vertex 44.7601 12.5038 2
    endloop
  endfacet
  facet normal 0.382846 0.923812 0
    outer loop
      vertex 44.6006 12.5699 2
      vertex 44.7601 12.5038 0
      vertex 44.6006 12.5699 0
    endloop
  endfacet
  facet normal 0.649598 0.760278 -0
    outer loop
      vertex 44.4534 12.6601 0
      vertex 44.3222 12.7722 2
      vertex 44.4534 12.6601 2
    endloop
  endfacet
  facet normal 0.649598 0.760278 0
    outer loop
      vertex 44.3222 12.7722 2
      vertex 44.4534 12.6601 0
      vertex 44.3222 12.7722 0
    endloop
  endfacet
  facet normal 0.996937 -0.0782025 0
    outer loop
      vertex 44 13.55 2
      vertex 44.0135 13.7221 0
      vertex 44.0135 13.7221 2
    endloop
  endfacet
  facet normal 0.996937 -0.0782025 0
    outer loop
      vertex 44.0135 13.7221 0
      vertex 44 13.55 2
      vertex 44 13.55 0
    endloop
  endfacet
  facet normal 0.382846 -0.923812 0
    outer loop
      vertex 44.6006 14.5301 0
      vertex 44.7601 14.5962 2
      vertex 44.6006 14.5301 2
    endloop
  endfacet
  facet normal 0.382846 -0.923812 0
    outer loop
      vertex 44.7601 14.5962 2
      vertex 44.6006 14.5301 0
      vertex 44.7601 14.5962 0
    endloop
  endfacet
  facet normal 0.522481 0.852651 -0
    outer loop
      vertex 44.6006 12.5699 0
      vertex 44.4534 12.6601 2
      vertex 44.6006 12.5699 2
    endloop
  endfacet
  facet normal 0.522481 0.852651 0
    outer loop
      vertex 44.4534 12.6601 2
      vertex 44.6006 12.5699 0
      vertex 44.4534 12.6601 0
    endloop
  endfacet
  facet normal 0.996937 0.0782025 0
    outer loop
      vertex 44.0135 13.3779 2
      vertex 44 13.55 0
      vertex 44 13.55 2
    endloop
  endfacet
  facet normal 0.996937 0.0782025 0
    outer loop
      vertex 44 13.55 0
      vertex 44.0135 13.3779 2
      vertex 44.0135 13.3779 0
    endloop
  endfacet
  facet normal 0.852651 0.522481 0
    outer loop
      vertex 44.2101 12.9034 2
      vertex 44.1199 13.0506 0
      vertex 44.1199 13.0506 2
    endloop
  endfacet
  facet normal 0.852651 0.522481 0
    outer loop
      vertex 44.1199 13.0506 0
      vertex 44.2101 12.9034 2
      vertex 44.2101 12.9034 0
    endloop
  endfacet
  facet normal 0.233406 0.972379 -0
    outer loop
      vertex 5.7497 11.9697 0
      vertex 5.50557 12.0283 2
      vertex 5.7497 11.9697 2
    endloop
  endfacet
  facet normal 0.233406 0.972379 0
    outer loop
      vertex 5.50557 12.0283 2
      vertex 5.7497 11.9697 0
      vertex 5.50557 12.0283 0
    endloop
  endfacet
  facet normal 0.972364 0.233471 0
    outer loop
      vertex 4.47831 13.0556 2
      vertex 4.4197 13.2997 0
      vertex 4.4197 13.2997 2
    endloop
  endfacet
  facet normal 0.972364 0.233471 0
    outer loop
      vertex 4.4197 13.2997 0
      vertex 4.47831 13.0556 2
      vertex 4.47831 13.0556 0
    endloop
  endfacet
  facet normal 0.0784629 -0.996917 0
    outer loop
      vertex 5.7497 15.1303 0
      vertex 6 15.15 2
      vertex 5.7497 15.1303 2
    endloop
  endfacet
  facet normal 0.0784629 -0.996917 0
    outer loop
      vertex 6 15.15 2
      vertex 5.7497 15.1303 0
      vertex 6 15.15 0
    endloop
  endfacet
  facet normal -0.760542 -0.649289 0
    outer loop
      vertex 7.16236 14.6451 0
      vertex 7.13137 14.6814 2
      vertex 7.13137 14.6814 0
    endloop
  endfacet
  facet normal -0.760542 -0.649289 0
    outer loop
      vertex 7.13137 14.6814 2
      vertex 7.16236 14.6451 0
      vertex 7.16236 14.6451 2
    endloop
  endfacet
  facet normal 0.923904 0.382624 0
    outer loop
      vertex 4.57439 12.8236 2
      vertex 4.47831 13.0556 0
      vertex 4.47831 13.0556 2
    endloop
  endfacet
  facet normal 0.923904 0.382624 0
    outer loop
      vertex 4.47831 13.0556 0
      vertex 4.57439 12.8236 2
      vertex 4.57439 12.8236 0
    endloop
  endfacet
  facet normal 0.649327 -0.760509 0
    outer loop
      vertex 4.86863 14.6814 0
      vertex 5.05954 14.8444 2
      vertex 4.86863 14.6814 2
    endloop
  endfacet
  facet normal 0.649327 -0.760509 0
    outer loop
      vertex 5.05954 14.8444 2
      vertex 4.86863 14.6814 0
      vertex 5.05954 14.8444 0
    endloop
  endfacet
  facet normal -0.760542 0.649289 0
    outer loop
      vertex 7.13137 12.4186 0
      vertex 7.16236 12.4549 2
      vertex 7.16236 12.4549 0
    endloop
  endfacet
  facet normal -0.760542 0.649289 0
    outer loop
      vertex 7.16236 12.4549 2
      vertex 7.13137 12.4186 0
      vertex 7.13137 12.4186 2
    endloop
  endfacet
  facet normal -0.233397 -0.972382 0
    outer loop
      vertex 6.25029 15.1303 0
      vertex 6.49443 15.0717 2
      vertex 6.25029 15.1303 2
    endloop
  endfacet
  facet normal -0.233397 -0.972382 -0
    outer loop
      vertex 6.49443 15.0717 2
      vertex 6.25029 15.1303 0
      vertex 6.49443 15.0717 0
    endloop
  endfacet
  facet normal 0.649327 0.760509 -0
    outer loop
      vertex 5.05954 12.2556 0
      vertex 4.86863 12.4186 2
      vertex 5.05954 12.2556 2
    endloop
  endfacet
  facet normal 0.649327 0.760509 0
    outer loop
      vertex 4.86863 12.4186 2
      vertex 5.05954 12.2556 0
      vertex 4.86863 12.4186 0
    endloop
  endfacet
  facet normal 0.996917 0.0784629 0
    outer loop
      vertex 4.4197 13.2997 2
      vertex 4.4 13.55 0
      vertex 4.4 13.55 2
    endloop
  endfacet
  facet normal 0.996917 0.0784629 0
    outer loop
      vertex 4.4 13.55 0
      vertex 4.4197 13.2997 2
      vertex 4.4197 13.2997 0
    endloop
  endfacet
  facet normal 0.233406 -0.972379 0
    outer loop
      vertex 5.50557 15.0717 0
      vertex 5.7497 15.1303 2
      vertex 5.50557 15.0717 2
    endloop
  endfacet
  facet normal 0.233406 -0.972379 0
    outer loop
      vertex 5.7497 15.1303 2
      vertex 5.50557 15.0717 0
      vertex 5.7497 15.1303 0
    endloop
  endfacet
  facet normal 0.972364 -0.233471 0
    outer loop
      vertex 4.4197 13.8003 2
      vertex 4.47831 14.0444 0
      vertex 4.47831 14.0444 2
    endloop
  endfacet
  facet normal 0.972364 -0.233471 0
    outer loop
      vertex 4.47831 14.0444 0
      vertex 4.4197 13.8003 2
      vertex 4.4197 13.8003 0
    endloop
  endfacet
  facet normal -0.382762 -0.923847 0
    outer loop
      vertex 6.49443 15.0717 0
      vertex 6.72638 14.9756 2
      vertex 6.49443 15.0717 2
    endloop
  endfacet
  facet normal -0.382762 -0.923847 -0
    outer loop
      vertex 6.72638 14.9756 2
      vertex 6.49443 15.0717 0
      vertex 6.72638 14.9756 0
    endloop
  endfacet
  facet normal -0.649327 0.760509 0
    outer loop
      vertex 7.13137 12.4186 0
      vertex 6.94046 12.2556 2
      vertex 7.13137 12.4186 2
    endloop
  endfacet
  facet normal -0.649327 0.760509 0
    outer loop
      vertex 6.94046 12.2556 2
      vertex 7.13137 12.4186 0
      vertex 6.94046 12.2556 0
    endloop
  endfacet
  facet normal 0.923904 -0.382624 0
    outer loop
      vertex 4.47831 14.0444 2
      vertex 4.57439 14.2764 0
      vertex 4.57439 14.2764 2
    endloop
  endfacet
  facet normal 0.923904 -0.382624 0
    outer loop
      vertex 4.57439 14.2764 0
      vertex 4.47831 14.0444 2
      vertex 4.47831 14.0444 0
    endloop
  endfacet
  facet normal -0.382762 0.923847 0
    outer loop
      vertex 6.72638 12.1244 0
      vertex 6.49443 12.0283 2
      vertex 6.72638 12.1244 2
    endloop
  endfacet
  facet normal -0.382762 0.923847 0
    outer loop
      vertex 6.49443 12.0283 2
      vertex 6.72638 12.1244 0
      vertex 6.49443 12.0283 0
    endloop
  endfacet
  facet normal 0.760374 0.649485 0
    outer loop
      vertex 4.86863 12.4186 2
      vertex 4.70557 12.6095 0
      vertex 4.70557 12.6095 2
    endloop
  endfacet
  facet normal 0.760374 0.649485 0
    outer loop
      vertex 4.70557 12.6095 0
      vertex 4.86863 12.4186 2
      vertex 4.86863 12.4186 0
    endloop
  endfacet
  facet normal 0.382748 -0.923853 0
    outer loop
      vertex 5.27361 14.9756 0
      vertex 5.50557 15.0717 2
      vertex 5.27361 14.9756 2
    endloop
  endfacet
  facet normal 0.382748 -0.923853 0
    outer loop
      vertex 5.50557 15.0717 2
      vertex 5.27361 14.9756 0
      vertex 5.50557 15.0717 0
    endloop
  endfacet
  facet normal 0.852677 -0.522439 0
    outer loop
      vertex 4.57439 14.2764 2
      vertex 4.70557 14.4905 0
      vertex 4.70557 14.4905 2
    endloop
  endfacet
  facet normal 0.852677 -0.522439 0
    outer loop
      vertex 4.70557 14.4905 0
      vertex 4.57439 14.2764 2
      vertex 4.57439 14.2764 0
    endloop
  endfacet
  facet normal -0.649327 -0.760509 0
    outer loop
      vertex 6.94046 14.8444 0
      vertex 7.13137 14.6814 2
      vertex 6.94046 14.8444 2
    endloop
  endfacet
  facet normal -0.649327 -0.760509 -0
    outer loop
      vertex 7.13137 14.6814 2
      vertex 6.94046 14.8444 0
      vertex 7.13137 14.6814 0
    endloop
  endfacet
  facet normal -0.522532 -0.85262 0
    outer loop
      vertex 6.72638 14.9756 0
      vertex 6.94046 14.8444 2
      vertex 6.72638 14.9756 2
    endloop
  endfacet
  facet normal -0.522532 -0.85262 -0
    outer loop
      vertex 6.94046 14.8444 2
      vertex 6.72638 14.9756 0
      vertex 6.94046 14.8444 0
    endloop
  endfacet
  facet normal -0.233397 0.972382 0
    outer loop
      vertex 6.49443 12.0283 0
      vertex 6.25029 11.9697 2
      vertex 6.49443 12.0283 2
    endloop
  endfacet
  facet normal -0.233397 0.972382 0
    outer loop
      vertex 6.25029 11.9697 2
      vertex 6.49443 12.0283 0
      vertex 6.25029 11.9697 0
    endloop
  endfacet
  facet normal -0.522532 0.85262 0
    outer loop
      vertex 6.94046 12.2556 0
      vertex 6.72638 12.1244 2
      vertex 6.94046 12.2556 2
    endloop
  endfacet
  facet normal -0.522532 0.85262 0
    outer loop
      vertex 6.72638 12.1244 2
      vertex 6.94046 12.2556 0
      vertex 6.72638 12.1244 0
    endloop
  endfacet
  facet normal -0.078466 -0.996917 0
    outer loop
      vertex 6 15.15 0
      vertex 6.25029 15.1303 2
      vertex 6 15.15 2
    endloop
  endfacet
  facet normal -0.078466 -0.996917 -0
    outer loop
      vertex 6.25029 15.1303 2
      vertex 6 15.15 0
      vertex 6.25029 15.1303 0
    endloop
  endfacet
  facet normal 0.996917 -0.0784629 0
    outer loop
      vertex 4.4 13.55 2
      vertex 4.4197 13.8003 0
      vertex 4.4197 13.8003 2
    endloop
  endfacet
  facet normal 0.996917 -0.0784629 0
    outer loop
      vertex 4.4197 13.8003 0
      vertex 4.4 13.55 2
      vertex 4.4 13.55 0
    endloop
  endfacet
  facet normal -0.078466 0.996917 0
    outer loop
      vertex 6.25029 11.9697 0
      vertex 6 11.95 2
      vertex 6.25029 11.9697 2
    endloop
  endfacet
  facet normal -0.078466 0.996917 0
    outer loop
      vertex 6 11.95 2
      vertex 6.25029 11.9697 0
      vertex 6 11.95 0
    endloop
  endfacet
  facet normal 0.852677 0.522439 0
    outer loop
      vertex 4.70557 12.6095 2
      vertex 4.57439 12.8236 0
      vertex 4.57439 12.8236 2
    endloop
  endfacet
  facet normal 0.852677 0.522439 0
    outer loop
      vertex 4.57439 12.8236 0
      vertex 4.70557 12.6095 2
      vertex 4.70557 12.6095 0
    endloop
  endfacet
  facet normal 0.52255 -0.852609 0
    outer loop
      vertex 5.05954 14.8444 0
      vertex 5.27361 14.9756 2
      vertex 5.05954 14.8444 2
    endloop
  endfacet
  facet normal 0.52255 -0.852609 0
    outer loop
      vertex 5.27361 14.9756 2
      vertex 5.05954 14.8444 0
      vertex 5.27361 14.9756 0
    endloop
  endfacet
  facet normal 0.0784629 0.996917 -0
    outer loop
      vertex 6 11.95 0
      vertex 5.7497 11.9697 2
      vertex 6 11.95 2
    endloop
  endfacet
  facet normal 0.0784629 0.996917 0
    outer loop
      vertex 5.7497 11.9697 2
      vertex 6 11.95 0
      vertex 5.7497 11.9697 0
    endloop
  endfacet
  facet normal 0.760374 -0.649485 0
    outer loop
      vertex 4.70557 14.4905 2
      vertex 4.86863 14.6814 0
      vertex 4.86863 14.6814 2
    endloop
  endfacet
  facet normal 0.760374 -0.649485 0
    outer loop
      vertex 4.86863 14.6814 0
      vertex 4.70557 14.4905 2
      vertex 4.70557 14.4905 0
    endloop
  endfacet
  facet normal 0.382748 0.923853 -0
    outer loop
      vertex 5.50557 12.0283 0
      vertex 5.27361 12.1244 2
      vertex 5.50557 12.0283 2
    endloop
  endfacet
  facet normal 0.382748 0.923853 0
    outer loop
      vertex 5.27361 12.1244 2
      vertex 5.50557 12.0283 0
      vertex 5.27361 12.1244 0
    endloop
  endfacet
  facet normal 0.52255 0.852609 -0
    outer loop
      vertex 5.27361 12.1244 0
      vertex 5.05954 12.2556 2
      vertex 5.27361 12.1244 2
    endloop
  endfacet
  facet normal 0.52255 0.852609 0
    outer loop
      vertex 5.05954 12.2556 2
      vertex 5.27361 12.1244 0
      vertex 5.05954 12.2556 0
    endloop
  endfacet
  facet normal -0.996917 0.0784629 0
    outer loop
      vertex 47.7803 13.2997 0
      vertex 47.8 13.55 2
      vertex 47.8 13.55 0
    endloop
  endfacet
  facet normal -0.996917 0.0784629 0
    outer loop
      vertex 47.8 13.55 2
      vertex 47.7803 13.2997 0
      vertex 47.7803 13.2997 2
    endloop
  endfacet
  facet normal -0.972373 -0.233433 0
    outer loop
      vertex 47.7803 13.8003 0
      vertex 47.7217 14.0444 2
      vertex 47.7217 14.0444 0
    endloop
  endfacet
  facet normal -0.972373 -0.233433 0
    outer loop
      vertex 47.7217 14.0444 2
      vertex 47.7803 13.8003 0
      vertex 47.7803 13.8003 2
    endloop
  endfacet
  facet normal -0.996917 -0.0784629 0
    outer loop
      vertex 47.8 13.55 0
      vertex 47.7803 13.8003 2
      vertex 47.7803 13.8003 0
    endloop
  endfacet
  facet normal -0.996917 -0.0784629 0
    outer loop
      vertex 47.7803 13.8003 2
      vertex 47.8 13.55 0
      vertex 47.8 13.55 2
    endloop
  endfacet
  facet normal -0.923876 -0.382692 0
    outer loop
      vertex 47.7217 14.0444 0
      vertex 47.6256 14.2764 2
      vertex 47.6256 14.2764 0
    endloop
  endfacet
  facet normal -0.923876 -0.382692 0
    outer loop
      vertex 47.6256 14.2764 2
      vertex 47.7217 14.0444 0
      vertex 47.7217 14.0444 2
    endloop
  endfacet
  facet normal -0.972373 0.233433 0
    outer loop
      vertex 47.7217 13.0556 0
      vertex 47.7803 13.2997 2
      vertex 47.7803 13.2997 0
    endloop
  endfacet
  facet normal -0.972373 0.233433 0
    outer loop
      vertex 47.7803 13.2997 2
      vertex 47.7217 13.0556 0
      vertex 47.7217 13.0556 2
    endloop
  endfacet
  facet normal 0.522497 0.852641 -0
    outer loop
      vertex 45.4736 12.1244 0
      vertex 45.2595 12.2556 2
      vertex 45.4736 12.1244 2
    endloop
  endfacet
  facet normal 0.522497 0.852641 0
    outer loop
      vertex 45.2595 12.2556 2
      vertex 45.4736 12.1244 0
      vertex 45.2595 12.2556 0
    endloop
  endfacet
  facet normal -0.382692 0.923876 0
    outer loop
      vertex 46.9264 12.1244 0
      vertex 46.6944 12.0283 2
      vertex 46.9264 12.1244 2
    endloop
  endfacet
  facet normal -0.382692 0.923876 0
    outer loop
      vertex 46.6944 12.0283 2
      vertex 46.9264 12.1244 0
      vertex 46.6944 12.0283 0
    endloop
  endfacet
  facet normal -0.852641 0.522497 0
    outer loop
      vertex 47.4944 12.6095 0
      vertex 47.6256 12.8236 2
      vertex 47.6256 12.8236 0
    endloop
  endfacet
  facet normal -0.852641 0.522497 0
    outer loop
      vertex 47.6256 12.8236 2
      vertex 47.4944 12.6095 0
      vertex 47.4944 12.6095 2
    endloop
  endfacet
  facet normal 0.522497 -0.852641 0
    outer loop
      vertex 45.2595 14.8444 0
      vertex 45.4736 14.9756 2
      vertex 45.2595 14.8444 2
    endloop
  endfacet
  facet normal 0.522497 -0.852641 0
    outer loop
      vertex 45.4736 14.9756 2
      vertex 45.2595 14.8444 0
      vertex 45.4736 14.9756 0
    endloop
  endfacet
  facet normal -0.0784629 -0.996917 0
    outer loop
      vertex 46.2 15.15 0
      vertex 46.4503 15.1303 2
      vertex 46.2 15.15 2
    endloop
  endfacet
  facet normal -0.0784629 -0.996917 -0
    outer loop
      vertex 46.4503 15.1303 2
      vertex 46.2 15.15 0
      vertex 46.4503 15.1303 0
    endloop
  endfacet
  facet normal -0.233433 0.972373 0
    outer loop
      vertex 46.6944 12.0283 0
      vertex 46.4503 11.9697 2
      vertex 46.6944 12.0283 2
    endloop
  endfacet
  facet normal -0.233433 0.972373 0
    outer loop
      vertex 46.4503 11.9697 2
      vertex 46.6944 12.0283 0
      vertex 46.4503 11.9697 0
    endloop
  endfacet
  facet normal -0.923876 0.382692 0
    outer loop
      vertex 47.6256 12.8236 0
      vertex 47.7217 13.0556 2
      vertex 47.7217 13.0556 0
    endloop
  endfacet
  facet normal -0.923876 0.382692 0
    outer loop
      vertex 47.7217 13.0556 2
      vertex 47.6256 12.8236 0
      vertex 47.6256 12.8236 2
    endloop
  endfacet
  facet normal -0.649347 -0.760493 0
    outer loop
      vertex 47.1405 14.8444 0
      vertex 47.3314 14.6814 2
      vertex 47.1405 14.8444 2
    endloop
  endfacet
  facet normal -0.649347 -0.760493 -0
    outer loop
      vertex 47.3314 14.6814 2
      vertex 47.1405 14.8444 0
      vertex 47.3314 14.6814 0
    endloop
  endfacet
  facet normal -0.522497 0.852641 0
    outer loop
      vertex 47.1405 12.2556 0
      vertex 46.9264 12.1244 2
      vertex 47.1405 12.2556 2
    endloop
  endfacet
  facet normal -0.522497 0.852641 0
    outer loop
      vertex 46.9264 12.1244 2
      vertex 47.1405 12.2556 0
      vertex 46.9264 12.1244 0
    endloop
  endfacet
  facet normal -0.382692 -0.923876 0
    outer loop
      vertex 46.6944 15.0717 0
      vertex 46.9264 14.9756 2
      vertex 46.6944 15.0717 2
    endloop
  endfacet
  facet normal -0.382692 -0.923876 -0
    outer loop
      vertex 46.9264 14.9756 2
      vertex 46.6944 15.0717 0
      vertex 46.9264 14.9756 0
    endloop
  endfacet
  facet normal -0.852641 -0.522497 0
    outer loop
      vertex 47.6256 14.2764 0
      vertex 47.4944 14.4905 2
      vertex 47.4944 14.4905 0
    endloop
  endfacet
  facet normal -0.852641 -0.522497 0
    outer loop
      vertex 47.4944 14.4905 2
      vertex 47.6256 14.2764 0
      vertex 47.6256 14.2764 2
    endloop
  endfacet
  facet normal 0.382692 -0.923876 0
    outer loop
      vertex 45.4736 14.9756 0
      vertex 45.7056 15.0717 2
      vertex 45.4736 14.9756 2
    endloop
  endfacet
  facet normal 0.382692 -0.923876 0
    outer loop
      vertex 45.7056 15.0717 2
      vertex 45.4736 14.9756 0
      vertex 45.7056 15.0717 0
    endloop
  endfacet
  facet normal 0.649347 0.760493 -0
    outer loop
      vertex 45.2595 12.2556 0
      vertex 45.0686 12.4186 2
      vertex 45.2595 12.2556 2
    endloop
  endfacet
  facet normal 0.649347 0.760493 0
    outer loop
      vertex 45.0686 12.4186 2
      vertex 45.2595 12.2556 0
      vertex 45.0686 12.4186 0
    endloop
  endfacet
  facet normal 0.649347 -0.760493 0
    outer loop
      vertex 45.0686 14.6814 0
      vertex 45.2595 14.8444 2
      vertex 45.0686 14.6814 2
    endloop
  endfacet
  facet normal 0.649347 -0.760493 0
    outer loop
      vertex 45.2595 14.8444 2
      vertex 45.0686 14.6814 0
      vertex 45.2595 14.8444 0
    endloop
  endfacet
  facet normal -0.760493 0.649347 0
    outer loop
      vertex 47.3314 12.4186 0
      vertex 47.4944 12.6095 2
      vertex 47.4944 12.6095 0
    endloop
  endfacet
  facet normal -0.760493 0.649347 0
    outer loop
      vertex 47.4944 12.6095 2
      vertex 47.3314 12.4186 0
      vertex 47.3314 12.4186 2
    endloop
  endfacet
  facet normal -0.233433 -0.972373 0
    outer loop
      vertex 46.4503 15.1303 0
      vertex 46.6944 15.0717 2
      vertex 46.4503 15.1303 2
    endloop
  endfacet
  facet normal -0.233433 -0.972373 -0
    outer loop
      vertex 46.6944 15.0717 2
      vertex 46.4503 15.1303 0
      vertex 46.6944 15.0717 0
    endloop
  endfacet
  facet normal 0.233433 0.972373 -0
    outer loop
      vertex 45.9497 11.9697 0
      vertex 45.7056 12.0283 2
      vertex 45.9497 11.9697 2
    endloop
  endfacet
  facet normal 0.233433 0.972373 0
    outer loop
      vertex 45.7056 12.0283 2
      vertex 45.9497 11.9697 0
      vertex 45.7056 12.0283 0
    endloop
  endfacet
  facet normal 0.0784629 0.996917 -0
    outer loop
      vertex 46.2 11.95 0
      vertex 45.9497 11.9697 2
      vertex 46.2 11.95 2
    endloop
  endfacet
  facet normal 0.0784629 0.996917 0
    outer loop
      vertex 45.9497 11.9697 2
      vertex 46.2 11.95 0
      vertex 45.9497 11.9697 0
    endloop
  endfacet
  facet normal -0.522497 -0.852641 0
    outer loop
      vertex 46.9264 14.9756 0
      vertex 47.1405 14.8444 2
      vertex 46.9264 14.9756 2
    endloop
  endfacet
  facet normal -0.522497 -0.852641 -0
    outer loop
      vertex 47.1405 14.8444 2
      vertex 46.9264 14.9756 0
      vertex 47.1405 14.8444 0
    endloop
  endfacet
  facet normal 0.233433 -0.972373 0
    outer loop
      vertex 45.7056 15.0717 0
      vertex 45.9497 15.1303 2
      vertex 45.7056 15.0717 2
    endloop
  endfacet
  facet normal 0.233433 -0.972373 0
    outer loop
      vertex 45.9497 15.1303 2
      vertex 45.7056 15.0717 0
      vertex 45.9497 15.1303 0
    endloop
  endfacet
  facet normal 0.0784629 -0.996917 0
    outer loop
      vertex 45.9497 15.1303 0
      vertex 46.2 15.15 2
      vertex 45.9497 15.1303 2
    endloop
  endfacet
  facet normal 0.0784629 -0.996917 0
    outer loop
      vertex 46.2 15.15 2
      vertex 45.9497 15.1303 0
      vertex 46.2 15.15 0
    endloop
  endfacet
  facet normal 0.760438 -0.64941 0
    outer loop
      vertex 45.0376 14.6451 2
      vertex 45.0686 14.6814 0
      vertex 45.0686 14.6814 2
    endloop
  endfacet
  facet normal 0.760438 -0.64941 0
    outer loop
      vertex 45.0686 14.6814 0
      vertex 45.0376 14.6451 2
      vertex 45.0376 14.6451 0
    endloop
  endfacet
  facet normal 0.760438 0.64941 0
    outer loop
      vertex 45.0686 12.4186 2
      vertex 45.0376 12.4549 0
      vertex 45.0376 12.4549 2
    endloop
  endfacet
  facet normal 0.760438 0.64941 0
    outer loop
      vertex 45.0376 12.4549 0
      vertex 45.0686 12.4186 2
      vertex 45.0686 12.4186 0
    endloop
  endfacet
  facet normal -0.760493 -0.649347 0
    outer loop
      vertex 47.4944 14.4905 0
      vertex 47.3314 14.6814 2
      vertex 47.3314 14.6814 0
    endloop
  endfacet
  facet normal -0.760493 -0.649347 0
    outer loop
      vertex 47.3314 14.6814 2
      vertex 47.4944 14.4905 0
      vertex 47.4944 14.4905 2
    endloop
  endfacet
  facet normal 0.382692 0.923876 -0
    outer loop
      vertex 45.7056 12.0283 0
      vertex 45.4736 12.1244 2
      vertex 45.7056 12.0283 2
    endloop
  endfacet
  facet normal 0.382692 0.923876 0
    outer loop
      vertex 45.4736 12.1244 2
      vertex 45.7056 12.0283 0
      vertex 45.4736 12.1244 0
    endloop
  endfacet
  facet normal -0.0784629 0.996917 0
    outer loop
      vertex 46.4503 11.9697 0
      vertex 46.2 11.95 2
      vertex 46.4503 11.9697 2
    endloop
  endfacet
  facet normal -0.0784629 0.996917 0
    outer loop
      vertex 46.2 11.95 2
      vertex 46.4503 11.9697 0
      vertex 46.2 11.95 0
    endloop
  endfacet
  facet normal -0.649347 0.760493 0
    outer loop
      vertex 47.3314 12.4186 0
      vertex 47.1405 12.2556 2
      vertex 47.3314 12.4186 2
    endloop
  endfacet
  facet normal -0.649347 0.760493 0
    outer loop
      vertex 47.1405 12.2556 2
      vertex 47.3314 12.4186 0
      vertex 47.1405 12.2556 0
    endloop
  endfacet
endsolid OpenSCAD_Model
